<svg xmlns="http://www.w3.org/2000/svg" xmlns:xlink="http://www.w3.org/1999/xlink" viewBox="0 0 1068.56 1023.56"><defs><style>.cls-1{fill:none;}.cls-2{isolation:isolate;}.cls-3{fill:#ffd286;}.cls-4{opacity:0.75;}.cls-11,.cls-18,.cls-19,.cls-25,.cls-4{mix-blend-mode:soft-light;}.cls-5{fill:url(#Gradiente_sem_nome_12);}.cls-6{fill:url(#Gradiente_sem_nome_12-2);}.cls-7{fill:#f2b255;}.cls-8{fill:#63a69f;}.cls-9{clip-path:url(#clip-path);}.cls-10{fill:#ef4a6b;}.cls-11{opacity:0.8;fill:url(#Gradiente_sem_nome_12-3);}.cls-12{fill:#f9cc3d;}.cls-13{fill:#a67c52;}.cls-14{fill:#29abe2;}.cls-15{clip-path:url(#clip-path-2);}.cls-16{fill:#45cfff;}.cls-17{fill:#77382c;}.cls-19{fill:#fff;}.cls-20{mix-blend-mode:overlay;}.cls-21{fill:#f37344;}.cls-22{fill:#5ac9e3;}.cls-23{fill:#f7931e;}.cls-24{fill:#90a99c;}</style><linearGradient id="Gradiente_sem_nome_12" x1="341.87" y1="501.81" x2="780.14" y2="501.81" gradientUnits="userSpaceOnUse"><stop offset="0" stop-color="#4c4c4c"/><stop offset="0.31" stop-color="#fff"/><stop offset="0.86"/></linearGradient><linearGradient id="Gradiente_sem_nome_12-2" x1="404.69" y1="347.55" x2="726.53" y2="347.55" xlink:href="#Gradiente_sem_nome_12"/><clipPath id="clip-path" transform="translate(-5.72 -28.22)"><rect class="cls-1" x="250.45" y="697.76" width="632.34" height="162.09"/></clipPath><linearGradient id="Gradiente_sem_nome_12-3" x1="250.45" y1="686.81" x2="882.76" y2="686.81" xlink:href="#Gradiente_sem_nome_12"/><clipPath id="clip-path-2" transform="translate(-5.72 -28.22)"><path class="cls-1" d="M560.66,238.39V165.55s-1.35-14.91,13.89-15.59,14.91,16.94,14.91,16.94v76.91Z"/></clipPath></defs><title>Cake</title><g class="cls-2"><g id="Layer_1" data-name="Layer 1"><path class="cls-3" d="M780.14,514.91v81.9L626.23,539.89H439.77L344.44,552.1l-2.57-61.91L352,453.27s54.67-8.76,58.78-11.4,59.12-29.13,59.12-29.13,66.56-2.58,72.48-5.4,81.39,6.4,85.68,5.9,41,6.32,53.7,6.11,73.81,22.52,73.81,22.52l24.53,73" transform="translate(-5.72 -28.22)"/><path class="cls-3" d="M411.9,284.94l-7.21,149s110.61-17.33,155.59-26.55,166.25,13.47,166.25,13.47l-1.81-114.68s-67-40.95-91.83-43.7-151.25,0-151.25,0Z" transform="translate(-5.72 -28.22)"/><g class="cls-4"><path class="cls-5" d="M780.14,514.91v81.9L626.23,539.89H439.77L344.44,552.1l-2.57-61.91L352,453.27s54.67-8.76,58.78-11.4,59.12-29.13,59.12-29.13,66.56-2.58,72.48-5.4,81.39,6.4,85.68,5.9,41,6.32,53.7,6.11,73.81,22.52,73.81,22.52l24.53,73" transform="translate(-5.72 -28.22)"/><path class="cls-6" d="M411.9,284.94l-7.21,149s110.61-17.33,155.59-26.55,166.25,13.47,166.25,13.47l-1.81-114.68s-67-40.95-91.83-43.7-151.25,0-151.25,0Z" transform="translate(-5.72 -28.22)"/></g><path class="cls-3" d="M250.45,648.85v193l632.31,1.94V689.7s-155.14-120-260.2-134.92S413.38,530.25,400,533.4,270.1,592.82,270.1,592.82Z" transform="translate(-5.72 -28.22)"/><path class="cls-7" d="M362.57,720.77a6.35,6.35,0,1,1-6.34-6.35A6.34,6.34,0,0,1,362.57,720.77Z" transform="translate(-5.72 -28.22)"/><path class="cls-7" d="M399.38,698.17a4,4,0,1,1-4-4A4,4,0,0,1,399.38,698.17Z" transform="translate(-5.72 -28.22)"/><path class="cls-7" d="M434,665.69a1.67,1.67,0,1,1-1.67-1.67A1.66,1.66,0,0,1,434,665.69Z" transform="translate(-5.72 -28.22)"/><path class="cls-7" d="M499.82,730a15.58,15.58,0,1,1-15.58-15.58A15.58,15.58,0,0,1,499.82,730Z" transform="translate(-5.72 -28.22)"/><path class="cls-7" d="M504.55,673.3a1.21,1.21,0,1,0-1.2,1.21A1.2,1.2,0,0,0,504.55,673.3Z" transform="translate(-5.72 -28.22)"/><circle class="cls-7" cx="525.14" cy="614.24" r="4.25"/><path class="cls-7" d="M404.69,775a4.66,4.66,0,1,1-4.66-4.66A4.66,4.66,0,0,1,404.69,775Z" transform="translate(-5.72 -28.22)"/><path class="cls-7" d="M439.77,766.57a4.55,4.55,0,1,1-4.54-4.55A4.55,4.55,0,0,1,439.77,766.57Z" transform="translate(-5.72 -28.22)"/><circle class="cls-7" cx="328" cy="766.35" r="9.94"/><path class="cls-7" d="M344.44,772.82a2.47,2.47,0,1,1-2.47-2.47A2.46,2.46,0,0,1,344.44,772.82Z" transform="translate(-5.72 -28.22)"/><circle class="cls-7" cx="296.47" cy="714.27" r="7.2"/><circle class="cls-7" cx="304.19" cy="689.77" r="0.52"/><circle class="cls-7" cx="294.25" cy="620.72" r="2.23"/><path class="cls-7" d="M302.19,807.26a2.76,2.76,0,1,1-2.75-2.75A2.75,2.75,0,0,1,302.19,807.26Z" transform="translate(-5.72 -28.22)"/><path class="cls-7" d="M514.69,796.6a2,2,0,1,1-2-2A2,2,0,0,1,514.69,796.6Z" transform="translate(-5.72 -28.22)"/><path class="cls-7" d="M564.55,758.39a2.53,2.53,0,1,1-2.53-2.53A2.54,2.54,0,0,1,564.55,758.39Z" transform="translate(-5.72 -28.22)"/><path class="cls-7" d="M612.56,731.24a5.62,5.62,0,1,1-5.62-5.62A5.62,5.62,0,0,1,612.56,731.24Z" transform="translate(-5.72 -28.22)"/><path class="cls-7" d="M628.1,774.22a3.11,3.11,0,1,1-3.11-3.1A3.11,3.11,0,0,1,628.1,774.22Z" transform="translate(-5.72 -28.22)"/><path class="cls-7" d="M727.32,807.26a2.54,2.54,0,1,1-2.53-2.53A2.54,2.54,0,0,1,727.32,807.26Z" transform="translate(-5.72 -28.22)"/><path class="cls-7" d="M640.83,665.58a6.37,6.37,0,1,1-6.37-6.36A6.37,6.37,0,0,1,640.83,665.58Z" transform="translate(-5.72 -28.22)"/><path class="cls-7" d="M622.44,633.25A2.45,2.45,0,1,1,620,630.8,2.45,2.45,0,0,1,622.44,633.25Z" transform="translate(-5.72 -28.22)"/><path class="cls-7" d="M698.61,663a3.8,3.8,0,1,1-3.79-3.8A3.8,3.8,0,0,1,698.61,663Z" transform="translate(-5.72 -28.22)"/><path class="cls-7" d="M716.78,645.7a3.24,3.24,0,1,1-3.23-3.23A3.23,3.23,0,0,1,716.78,645.7Z" transform="translate(-5.72 -28.22)"/><path class="cls-7" d="M710.21,729.49a5.8,5.8,0,1,1-5.8-5.79A5.8,5.8,0,0,1,710.21,729.49Z" transform="translate(-5.72 -28.22)"/><path class="cls-7" d="M709.07,777.34a2.33,2.33,0,1,1-2.33-2.33A2.33,2.33,0,0,1,709.07,777.34Z" transform="translate(-5.72 -28.22)"/><path class="cls-7" d="M681.64,793v0Z" transform="translate(-5.72 -28.22)"/><path class="cls-7" d="M593.16,826.41a1.35,1.35,0,1,1-1.35-1.34A1.34,1.34,0,0,1,593.16,826.41Z" transform="translate(-5.72 -28.22)"/><path class="cls-7" d="M514.69,828.84v0Z" transform="translate(-5.72 -28.22)"/><path class="cls-7" d="M539.59,725.13a4.37,4.37,0,1,1-4.37-4.36A4.37,4.37,0,0,1,539.59,725.13Z" transform="translate(-5.72 -28.22)"/><path class="cls-7" d="M780.14,755.58a4,4,0,1,1-4-4A4,4,0,0,1,780.14,755.58Z" transform="translate(-5.72 -28.22)"/><path class="cls-7" d="M779.13,727.14a1.52,1.52,0,1,1-1.51-1.52A1.52,1.52,0,0,1,779.13,727.14Z" transform="translate(-5.72 -28.22)"/><path class="cls-7" d="M787.39,684.69a3.63,3.63,0,1,1-3.63-3.62A3.64,3.64,0,0,1,787.39,684.69Z" transform="translate(-5.72 -28.22)"/><circle class="cls-7" cx="800.17" cy="712.21" r="5.14"/><path class="cls-7" d="M841.55,762.2a2.58,2.58,0,1,1-2.58-2.58A2.58,2.58,0,0,1,841.55,762.2Z" transform="translate(-5.72 -28.22)"/><circle class="cls-7" cx="864.68" cy="768.75" r="6.17"/><path class="cls-7" d="M834.32,819.25a1,1,0,0,1-2.07,0,1,1,0,1,1,2.07,0Z" transform="translate(-5.72 -28.22)"/><path class="cls-7" d="M782,824.14a.93.93,0,1,1-.93-.93A.93.93,0,0,1,782,824.14Z" transform="translate(-5.72 -28.22)"/><path class="cls-7" d="M701.82,816.78a3.5,3.5,0,1,1-3.5-3.51A3.5,3.5,0,0,1,701.82,816.78Z" transform="translate(-5.72 -28.22)"/><path class="cls-7" d="M648.2,823a4.77,4.77,0,1,1-4.77-4.77A4.76,4.76,0,0,1,648.2,823Z" transform="translate(-5.72 -28.22)"/><path class="cls-7" d="M761.45,798.56a7.76,7.76,0,1,1-7.76-7.76A7.77,7.77,0,0,1,761.45,798.56Z" transform="translate(-5.72 -28.22)"/><circle class="cls-7" cx="796.92" cy="764.46" r="1.88"/><path class="cls-7" d="M552.67,813.81a6.54,6.54,0,1,1-6.54-6.55A6.54,6.54,0,0,1,552.67,813.81Z" transform="translate(-5.72 -28.22)"/><path class="cls-7" d="M473.45,815a1.76,1.76,0,1,1-1.76-1.75A1.76,1.76,0,0,1,473.45,815Z" transform="translate(-5.72 -28.22)"/><path class="cls-7" d="M404.69,814.86a1.6,1.6,0,1,0,1.6-1.59A1.6,1.6,0,0,0,404.69,814.86Z" transform="translate(-5.72 -28.22)"/><circle class="cls-7" cx="265.69" cy="804.06" r="3.45"/><circle class="cls-7" cx="262.93" cy="752.2" r="6.2"/><path class="cls-7" d="M407.88,636.75a3.93,3.93,0,1,1-3.92-3.92A3.93,3.93,0,0,1,407.88,636.75Z" transform="translate(-5.72 -28.22)"/><path class="cls-7" d="M430.68,578.3a2.06,2.06,0,1,1-2.05-2.06A2.05,2.05,0,0,1,430.68,578.3Z" transform="translate(-5.72 -28.22)"/><path class="cls-7" d="M535.11,584.94a6.64,6.64,0,1,1-6.64-6.64A6.64,6.64,0,0,1,535.11,584.94Z" transform="translate(-5.72 -28.22)"/><path class="cls-7" d="M381.1,498.58a1.82,1.82,0,1,1-1.82-1.82A1.82,1.82,0,0,1,381.1,498.58Z" transform="translate(-5.72 -28.22)"/><path class="cls-7" d="M404.69,492.41a.37.37,0,0,0-.73,0,.37.37,0,1,0,.73,0Z" transform="translate(-5.72 -28.22)"/><path class="cls-7" d="M426.57,478.43a1,1,0,1,0-1,1A1,1,0,0,0,426.57,478.43Z" transform="translate(-5.72 -28.22)"/><path class="cls-7" d="M439.77,470.11a3.72,3.72,0,1,1-3.71-3.71A3.71,3.71,0,0,1,439.77,470.11Z" transform="translate(-5.72 -28.22)"/><path class="cls-7" d="M515.16,483a2.26,2.26,0,1,1-2.26-2.26A2.26,2.26,0,0,1,515.16,483Z" transform="translate(-5.72 -28.22)"/><path class="cls-7" d="M526.61,462.78a1,1,0,1,0-1,1A1,1,0,0,0,526.61,462.78Z" transform="translate(-5.72 -28.22)"/><path class="cls-7" d="M552.7,456a2.68,2.68,0,1,1-2.67-2.68A2.68,2.68,0,0,1,552.7,456Z" transform="translate(-5.72 -28.22)"/><path class="cls-7" d="M562.17,476.78a2.44,2.44,0,1,1-2.44-2.44A2.44,2.44,0,0,1,562.17,476.78Z" transform="translate(-5.72 -28.22)"/><path class="cls-7" d="M576.62,485a2.07,2.07,0,1,1-2.06-2.06A2.07,2.07,0,0,1,576.62,485Z" transform="translate(-5.72 -28.22)"/><path class="cls-7" d="M519.5,441a4.43,4.43,0,1,1-4.43-4.43A4.43,4.43,0,0,1,519.5,441Z" transform="translate(-5.72 -28.22)"/><circle class="cls-7" cx="663.48" cy="475.46" r="3.29"/><path class="cls-7" d="M668.73,484.14a4.71,4.71,0,1,1-4.71-4.71A4.7,4.7,0,0,1,668.73,484.14Z" transform="translate(-5.72 -28.22)"/><path class="cls-7" d="M672.49,462.33a3.71,3.71,0,1,1-3.71-3.7A3.71,3.71,0,0,1,672.49,462.33Z" transform="translate(-5.72 -28.22)"/><path class="cls-7" d="M676.22,442.63a.74.74,0,0,1-.75.75.75.75,0,0,1-.76-.75.76.76,0,0,1,.76-.76A.75.75,0,0,1,676.22,442.63Z" transform="translate(-5.72 -28.22)"/><path class="cls-7" d="M724.79,516.34a4,4,0,1,1-4-4A4,4,0,0,1,724.79,516.34Z" transform="translate(-5.72 -28.22)"/><path class="cls-7" d="M737.08,499.64a2.89,2.89,0,1,1-2.88-2.88A2.88,2.88,0,0,1,737.08,499.64Z" transform="translate(-5.72 -28.22)"/><path class="cls-7" d="M742,484.08a1.13,1.13,0,1,1-2.26,0,1.13,1.13,0,1,1,2.26,0Z" transform="translate(-5.72 -28.22)"/><path class="cls-7" d="M726.53,489.72a.87.87,0,1,1-.87-.88A.87.87,0,0,1,726.53,489.72Z" transform="translate(-5.72 -28.22)"/><path class="cls-7" d="M745.19,536.12a2.72,2.72,0,1,1-2.72-2.72A2.72,2.72,0,0,1,745.19,536.12Z" transform="translate(-5.72 -28.22)"/><path class="cls-7" d="M767.29,545.72A3.32,3.32,0,1,1,764,542.4,3.32,3.32,0,0,1,767.29,545.72Z" transform="translate(-5.72 -28.22)"/><path class="cls-7" d="M703.22,519.59a.76.76,0,1,0-.76.76A.76.76,0,0,0,703.22,519.59Z" transform="translate(-5.72 -28.22)"/><path class="cls-7" d="M424.58,403.28a4.25,4.25,0,1,1-4.25-4.24A4.25,4.25,0,0,1,424.58,403.28Z" transform="translate(-5.72 -28.22)"/><circle class="cls-7" cx="429.51" cy="360.52" r="4.55"/><circle class="cls-7" cx="446.9" cy="339.98" r="3.43"/><path class="cls-7" d="M445.72,345.11a2.45,2.45,0,1,1-2.45-2.44A2.45,2.45,0,0,1,445.72,345.11Z" transform="translate(-5.72 -28.22)"/><path class="cls-7" d="M445.72,315a1.23,1.23,0,1,1-1.22-1.22A1.22,1.22,0,0,1,445.72,315Z" transform="translate(-5.72 -28.22)"/><path class="cls-7" d="M475.55,344.32a2.81,2.81,0,1,1-2.81-2.8A2.81,2.81,0,0,1,475.55,344.32Z" transform="translate(-5.72 -28.22)"/><path class="cls-7" d="M508.78,358.7a2.61,2.61,0,1,1-2.61-2.61A2.61,2.61,0,0,1,508.78,358.7Z" transform="translate(-5.72 -28.22)"/><path class="cls-7" d="M521.83,341.54a5.6,5.6,0,1,1-5.59-5.6A5.59,5.59,0,0,1,521.83,341.54Z" transform="translate(-5.72 -28.22)"/><path class="cls-7" d="M535.11,304.93a3.32,3.32,0,1,1-3.32-3.32A3.32,3.32,0,0,1,535.11,304.93Z" transform="translate(-5.72 -28.22)"/><path class="cls-7" d="M514.87,308.24a2.12,2.12,0,1,1-2.12-2.11A2.12,2.12,0,0,1,514.87,308.24Z" transform="translate(-5.72 -28.22)"/><path class="cls-7" d="M521.83,292.16a2,2,0,1,1-2-2A2,2,0,0,1,521.83,292.16Z" transform="translate(-5.72 -28.22)"/><circle class="cls-7" cx="478.65" cy="360.09" r="4.11"/><path class="cls-7" d="M530.86,371.34a3.15,3.15,0,1,1-3.14-3.14A3.15,3.15,0,0,1,530.86,371.34Z" transform="translate(-5.72 -28.22)"/><path class="cls-7" d="M549.1,347.66a3.34,3.34,0,1,1-3.34-3.34A3.35,3.35,0,0,1,549.1,347.66Z" transform="translate(-5.72 -28.22)"/><path class="cls-7" d="M577.65,371.47a3.27,3.27,0,1,1-3.27-3.27A3.26,3.26,0,0,1,577.65,371.47Z" transform="translate(-5.72 -28.22)"/><path class="cls-7" d="M589.23,360.88a2.18,2.18,0,1,1-2.18-2.18A2.17,2.17,0,0,1,589.23,360.88Z" transform="translate(-5.72 -28.22)"/><path class="cls-7" d="M600.59,337.15a1.21,1.21,0,1,1-1.21-1.21A1.21,1.21,0,0,1,600.59,337.15Z" transform="translate(-5.72 -28.22)"/><circle class="cls-7" cx="601.22" cy="295.06" r="3.32"/><path class="cls-7" d="M617,357a2.29,2.29,0,1,1-2.29-2.29A2.28,2.28,0,0,1,617,357Z" transform="translate(-5.72 -28.22)"/><path class="cls-7" d="M609.83,369.65a1.45,1.45,0,1,1-1.45-1.45A1.45,1.45,0,0,1,609.83,369.65Z" transform="translate(-5.72 -28.22)"/><path class="cls-7" d="M677,380a5.52,5.52,0,1,1-5.52-5.51A5.52,5.52,0,0,1,677,380Z" transform="translate(-5.72 -28.22)"/><path class="cls-7" d="M700.86,376.57a2.09,2.09,0,1,1-2.09-2.08A2.08,2.08,0,0,1,700.86,376.57Z" transform="translate(-5.72 -28.22)"/><path class="cls-7" d="M676.22,360a.75.75,0,0,1-.75.75.76.76,0,1,1,.75-.75Z" transform="translate(-5.72 -28.22)"/><path class="cls-7" d="M677,340.69a2.34,2.34,0,1,1-2.33-2.34A2.33,2.33,0,0,1,677,340.69Z" transform="translate(-5.72 -28.22)"/><path class="cls-7" d="M684.32,319a1.26,1.26,0,1,1-1.26-1.26A1.25,1.25,0,0,1,684.32,319Z" transform="translate(-5.72 -28.22)"/><path class="cls-7" d="M660.07,317.15a1.31,1.31,0,1,0,1.31-1.31A1.31,1.31,0,0,0,660.07,317.15Z" transform="translate(-5.72 -28.22)"/><path class="cls-7" d="M669.2,301.85a.23.23,0,0,1-.24.23.23.23,0,0,1-.23-.23.23.23,0,0,1,.23-.24A.24.24,0,0,1,669.2,301.85Z" transform="translate(-5.72 -28.22)"/><path class="cls-7" d="M662.3,350.79a1.5,1.5,0,1,1-1.49-1.49A1.5,1.5,0,0,1,662.3,350.79Z" transform="translate(-5.72 -28.22)"/><path class="cls-7" d="M647.18,377.34a.77.77,0,1,1-1.54,0,.77.77,0,0,1,1.54,0Z" transform="translate(-5.72 -28.22)"/><polygon class="cls-8" points="582.34 812.6 540.86 812.6 179.25 812.6 207.86 833.85 540.86 833.85 582.34 833.85 915.34 833.85 943.95 812.6 582.34 812.6"/><g class="cls-9"><path class="cls-10" d="M886.38,799s-55.06,17.28-78.71-5.72S773,725.62,725,735.29c-48.86,9.86-77.36,55.49-116.93,38.93s-57.75-61.91-109.9-57.77c-54.48,4.32-64.95,64.77-110.29,60.17s-63.54-53.26-100.45-29.17-22.69,59.27-53.17,53.63l0,11.65s12.24,4.12,25.3-5.68,18.47-40.2,35.67-47,44.8,14.52,44.8,14.52,28.8,26.67,59.29,24.09,59.53-37.33,68.83-44.9c14.2-11.54,41.14-23.2,73-1.48S582,793.51,617,799.38s69-31.33,107.32-43.33,51.84,43.7,78.28,58.74,66.12,10.36,86.76,2.7,0,2.51,0,2.51Z" transform="translate(-5.72 -28.22)"/></g><path class="cls-11" d="M250.45,648.85v192H882.76V689.7s-155.14-120-260.2-134.92S413.38,530.25,400,533.4,270.1,592.82,270.1,592.82Z" transform="translate(-5.72 -28.22)"/><path class="cls-12" d="M574.89,145.56s-5.08-3.05-6.44-6.44-6.6-4.23-10.5-8.3-11.35-18-4.74-31.17,11-13.38,15.08-14.06,17.27-9.48,5.25-28.63c0,0,21.85,4.92,22.19,27.45s4.4,30-2.71,35.4-13.21,12.7-12.88,16.09S579.12,144.37,574.89,145.56Z" transform="translate(-5.72 -28.22)"/><path class="cls-12" d="M580.43,50.92s2.82-6.32-1.25-9.94S565,32.29,563.82,28.22c0,0-3.05,9.71,3.5,15.47A33.07,33.07,0,0,0,580.43,50.92Z" transform="translate(-5.72 -28.22)"/><rect class="cls-13" x="567.33" y="92.41" width="3.7" height="41.37" rx="0.5"/><path class="cls-14" d="M560.66,238.39V165.55s-1.35-14.91,13.89-15.59,14.91,16.94,14.91,16.94v76.91Z" transform="translate(-5.72 -28.22)"/><g class="cls-15"><path class="cls-16" d="M556.6,220.94S584,218.4,593.19,235V214.16S582.35,199.6,556.6,204Z" transform="translate(-5.72 -28.22)"/><path class="cls-16" d="M556.75,182.82s27.44-2.54,36.59,14.06V176s-10.84-14.57-36.59-10.16Z" transform="translate(-5.72 -28.22)"/></g><path class="cls-17" d="M449.77,291.31S431.12,292.46,424,322.4s-2.76,51.13-20.73,50.43-15.2-22.55-6.91-40.75,3-29.94,3.92-34.78,10.59-14.05,12.2-20c0,0,19.58-52.28,167-44s159.36,65.4,161.66,75.07,0,33.17,3.22,45.14,6.91,32.24-5.06,35-25.8-11.05-18.43-35.92c0,0-5.06,9.82-18,7.37s-15-17.81-11.36-31,3.69-29.48-16-31.63-26.09,22.11-24.25,34.7,2.45,32.85-9.83,32.54-17.81-8.59-16.27-22.41c0,0-11.36-2.15-9.21-16s-21.19-17.5-25.18-6.75-8.6,23.64-24.87,20.57-16.58-20.35-16.27-29.36-4-33.89-25.18-31.13-23.34,22.64-25.79,31.13-9.83,21.38-23.95,19.84-20-12-18.12-21.49S457.09,288.81,449.77,291.31Z" transform="translate(-5.72 -28.22)"/><path class="cls-17" d="M802.94,439.62c10.23,11.54,21.65,30.85,12.9,60.33s-22.11,49.28-19.35,58.49,3.69,20.73-6.44,20.27-17.51-11.52-18.43-26.26,1.39-21.18-10.13-25.79A25.85,25.85,0,0,1,744.91,500c.92-11.51-.46-31.78-11.51-30.86s-13.82,15.2-19.35,25.79-25.33,8.29-30.4.92-2.76-20.26-2.76-34.08-7.37-28.09-20.72-24.87-15.66,21.19-12.9,35,0,29.47-13.36,31.31-21.64-13.35-18.88-23,6.45-26.26-4.15-29-10.59,10.13-16.11,20.73-25.34.46-25.8-11.52-3.68-25.33-18.42-21.65-17.5,7.83-23.49,1.85-9.21-20.27-22.1-13.82-8.29,34.08-25.8,43.75-31.31-6-41.91-13.81-21.64.92-23.95,10.13-12.43,18.42-24.87,13.82-12-16.58-19.34-11.06-8.75,11.52-9.21,18,1.05,20.07-4.21,29.89c-18.44,34.39-37.71,18.62-37.25,9s8.75-21.15,9.67-32.66S323,471.86,329,459s74.61-54.81,216-73.69S770.49,403,802.94,439.62Z" transform="translate(-5.72 -28.22)"/><path class="cls-17" d="M896.55,670.82s5.52,15.39,2.77,29.94c-4.05,21.39-.25,26.73,3.22,37.76,2.88,9.18-1.57,26.69-24.87,26.26-17.91-.34-27.64-23.95-24.87-38.69s4.14-36.85-6-40.53-11,6.91-10.59,19.34-8.29,22.57-19.35,16.12-20.26-19.34-18.42-38.23-6-41.45-15.2-41.91S767.59,651,769.44,669.44s-2.77,44.67-21.65,39.15-24.41-18-23.49-39.61S728,616,704,611.41s-15.2,18.88-29,26.71-33.62,1.84-38.69-24-15.2-38.2-27.63-35.45-20.73,13.8-15.66,23,11.51,20.72,6.45,28.09-12,10.13-5.07,21.65,11.05,39.14-6.91,44.21-31.32-17.5-27.63-40.53,16.58-82.9-14.74-93.49-41.91,12.89-41.45,36.84-18.88,39.61-36.39,35-29.93-16.12-29.47-45.13S427.69,556.9,418,559.05s-14.27,16-12,36.7-20.73,40.53-29.94,17.5c0,0,6.91,79.22-29.47,82s-37.31-31.32-32.24-47.9,3.68-50.2-5.53-50.66S292.29,626.6,294.13,646s12,68.63-21.65,80.6-42.83-18.88-36.38-49.28,15.66-48.82,16.12-64.48c0,0,4.86-89,187.91-115.6S835,568.73,896.55,670.82Z" transform="translate(-5.72 -28.22)"/><path class="cls-18" d="M847.61,680.72s11.28,4.15,12,16.81-3.22,25.7-2.53,35,3.45,20.31,10.36,18.93,2.76-10.59,0-16.12-4.3-9.36-3-21.42C865.24,706.27,867.26,681.87,847.61,680.72Z" transform="translate(-5.72 -28.22)"/><path class="cls-18" d="M898.42,750.81s-14.77,8.32-22.72.73c0,0-1.91,5.53-8.6,4.64C867.1,756.18,886.75,769.84,898.42,750.81Z" transform="translate(-5.72 -28.22)"/><path class="cls-18" d="M779.13,638.12s16.12-4,20.42,17,3.07,22.88,2.92,31.47,4.91,18.58,9.52,16.12-1.23-10.59-3.22-17.65-1.55-14.63-2.83-25.74C804.25,644.62,793.57,629.68,779.13,638.12Z" transform="translate(-5.72 -28.22)"/><path class="cls-18" d="M832.25,711.35s-4.6,4.61-8.44.77-5.37-7.37-7.83-5.53S814,715,818.44,717,830.26,721.18,832.25,711.35Z" transform="translate(-5.72 -28.22)"/><path class="cls-19" d="M869.1,701.37a45.7,45.7,0,0,1,0,12.44c-.92,7.21,2,20.11,6.6,25.79,7.08,8.83,18.12,8.29,20.26,0s-1.38-13.2-1.38-19.8c0,0-1.69,7.82-4,9.36s-10.59,1.69-14.73-8.29S872.63,704.6,869.1,701.37Z" transform="translate(-5.72 -28.22)"/><path class="cls-18" d="M719.57,618s6,5.37,7.67,22.57.16,30.24,0,36.53,3.23,20.73,14.9,25.34,15.66-6.45,10-11.37-15.2-7.67-16.13-18.72S738.14,624.3,719.57,618Z" transform="translate(-5.72 -28.22)"/><path class="cls-18" d="M767.24,681.07s-3.14,11-8.52,11.17c0,0,2.3,11-3.11,12.32C755.61,704.56,768.18,703.13,767.24,681.07Z" transform="translate(-5.72 -28.22)"/><path class="cls-18" d="M681.8,623.23s-3.38,15.81-18.27,15-21.18-12.89-23-21-8-41-27.94-41c0,0,23.92-1,31.17,23C652.63,628.78,673.66,635.36,681.8,623.23Z" transform="translate(-5.72 -28.22)"/><path class="cls-19" d="M588,595.75s1.69,8.44,4.91,12.43,6.76,12,4.61,12.75-7.52,2.76-11.82,0S581.55,595.9,588,595.75Z" transform="translate(-5.72 -28.22)"/><path class="cls-19" d="M588,645.18s.13.46.41,1.25A55.65,55.65,0,0,0,592.3,655c3.07,5.53,7.68,16.89,3.84,21.49s-18.58.92-19.35-8.44S577.56,637.05,588,645.18Z" transform="translate(-5.72 -28.22)"/><path class="cls-18" d="M535.11,556.37s23.49-4.15,29.94,21.19,3.91,41.45,2.53,49-7.06,28.79-4.61,45.45c1.8,12.2,12.9,25.94,26.26,21.11,0,0-15,1.5-18.89-14.68s1.16-40.36,3-51.18S587.62,538,535.11,556.37Z" transform="translate(-5.72 -28.22)"/><path class="cls-18" d="M499,592.52s.49,21.06-14,26C466.72,624.76,450.6,611,448.3,596s-8.53-9.9-8.53-2.07,5.3,35.69,31.55,37.3S502.87,603.58,499,592.52Z" transform="translate(-5.72 -28.22)"/><path class="cls-18" d="M420.66,556.48s13.13-2.87,16.93,10,2.18,18.77,2.18,18.77,2.31-6.79,6.57-2.19C446.34,583.08,447,546.7,420.66,556.48Z" transform="translate(-5.72 -28.22)"/><path class="cls-18" d="M397.94,609.72s-9.29,6.41-15.35,2.3c-5-3.37-6.1-11.77-5.57-18.34.68-8.41.52-18.66-1.33-21.27,0,0-.44,11.69-1.55,19-1.84,12.24,1.38,19.38,6,25.48,5.6,7.4,12.74,3.69,16.58,0a28.36,28.36,0,0,0,8-18.11S401.38,607.72,397.94,609.72Z" transform="translate(-5.72 -28.22)"/><path class="cls-18" d="M369.77,604s-4.47,49.5-17.5,60.79c-8.68,7.53-33.16,13.59-36.39-8.06,0,0-6,28.1,19.35,34.54S370,667.56,371.61,654.7c2-15.51,2-41,2-41S370.46,607.26,369.77,604Z" transform="translate(-5.72 -28.22)"/><path class="cls-18" d="M310.43,594.15s-6.45-.22-12.28,9.89c-4.61,8-7.91,24.79-6.76,34.69s2.72,28.89,3.54,37.16c1.48,15-1.8,42.75-24.11,48.2-20.11,4.92-29.55-3.07-28.4-9.28s8.52-2.54,16.58-1.85,21.88-3.45,25.56-17.73,2-42.84.69-56C283.72,624.15,291.09,585.17,310.43,594.15Z" transform="translate(-5.72 -28.22)"/><path class="cls-18" d="M237.66,681.11s-.61,22.26,6,27.17a6.38,6.38,0,0,0-3,6.14S232.29,702.6,237.66,681.11Z" transform="translate(-5.72 -28.22)"/><path class="cls-19" d="M807.08,645s4.83,18,4.6,30.17,4.84,26.25,10.6,29.36,12.2-2,11.51-9.13,1.84-12.87,6.45-14.71c0,0-7.37-3.91-10.14,3s-8.51.46-9.21-6.22S817.43,650.56,807.08,645Z" transform="translate(-5.72 -28.22)"/><path class="cls-19" d="M731.31,624.53s7.83,13.59,7.83,26,2.08,34.31,14.05,35,12.67-6.06,12-16.16,1.38-25.29,7.82-30.13c0,0-12,4.15-14.27,11.75s-9.91,8.06-11.52-.92S738.07,628.27,731.31,624.53Z" transform="translate(-5.72 -28.22)"/><path class="cls-19" d="M698.61,607.27s-11.74-.24-15.2,6.67-7.68,10.36-14.27,9.93c-7.45-.49-14.51-11.08-18.19-21.21S644,580,633.21,576.24c0,0,15.43,2.24,22.57,10.3s6.14,16.58,14.2,18S691.57,602.76,698.61,607.27Z" transform="translate(-5.72 -28.22)"/><path class="cls-18" d="M597.6,625.8c.12-.53-12.49,3.09-17.7-2.42,0,0-1.26,10,2.3,14S596.87,628.79,597.6,625.8Z" transform="translate(-5.72 -28.22)"/><path class="cls-18" d="M596.37,679.23s-13.35,7.48-19.75-4.72c0,0-2.82,13.58,7.77,16.11S596.37,679.23,596.37,679.23Z" transform="translate(-5.72 -28.22)"/><path class="cls-19" d="M498.65,585.27a54.22,54.22,0,0,0-3.07,9.86c-.77,4.46-5.83,19.5-16.12,20.42s-25.95-6.67-29.32-30.28-3.84-25.29-7.83-28.21c0,0,13.35,4.3,15,18.88s13.63,21.78,20.73,19.81c13.82-3.84,18.73-25.79,30.7-31.63C508.78,564.12,501.07,578.24,498.65,585.27Z" transform="translate(-5.72 -28.22)"/><path class="cls-19" d="M402.7,581.59s.34,7.83,0,12.66-6.25,13.7-13.55,13.93-10.17-5.64-9.94-10.71,1.93-20.14,0-24.4c0,0,4.62,6.33,5.08,11.51s2.24,12.09,6.74,11.51c7.19-.92,8.91-29.93,16.86-31.78a33.15,33.15,0,0,0-5.41,16.7" transform="translate(-5.72 -28.22)"/><path class="cls-19" d="M365.85,604c0-.15-4.52,58.11-28.7,62.79s-18.74-23.49-18.74-23.49,2.92,13.2,16,10.29S365.24,609.41,365.85,604Z" transform="translate(-5.72 -28.22)"/><path class="cls-19" d="M281.8,631.44a119.41,119.41,0,0,0,0,19.35c.92,9,4.08,40.78-5.42,51.12s-33,8.06-34-6,0-22.34,0-22.34.55,21.88,14.6,20.5,18.65-10.63,18.19-24.2S277.41,640.73,281.8,631.44Z" transform="translate(-5.72 -28.22)"/><path class="cls-19" d="M767.29,570S579.68,443.3,347.17,523.17c0,0-36.54,17.78-10.25,14.3C367.7,533.4,532.27,453.89,767.29,570Z" transform="translate(-5.72 -28.22)"/><path class="cls-19" d="M311.55,541.9s-16.88,8.56-22.42,16.49,2.28,6.67,8.62,3.32,26.52-16.37,22.36-20.08C317.39,539.2,316.2,539.35,311.55,541.9Z" transform="translate(-5.72 -28.22)"/><path class="cls-19" d="M831.26,607s40,29.42,54,51.35,12.29,27.41,11.44,34.43-1.77,14.4-1.77,17.16c0,0-3.38-14.43-2.76-20.27S890.9,657.48,831.26,607Z" transform="translate(-5.72 -28.22)"/><path class="cls-20" d="M724.79,470.47a9.91,9.91,0,0,1,10.74-3.83c7.07,1.84,11.37,7.21,11.83,14.89s-.65,21.67,2.45,30.7,13,10.07,17.48,13.13c5.09,3.45,6.4,7,6.24,16.89-.14,9,1.56,20.8,2.36,21.72,0,0,16.85,9.65,18.75,10.9,0,0,3.53-4.3.92-13.36s-.31-11.51-.15-12.74a15.42,15.42,0,0,0-4.3,10.13c0,6-9.37,2.92-9.67-3.68s-1.89-12.5.15-19.35c2.15-7.21-2.92-17.19-11.82-19a22.38,22.38,0,0,1-17.35-23c.62-12.44.77-24.56-4.45-29.63S733.23,457.58,724.79,470.47Z" transform="translate(-5.72 -28.22)"/><path class="cls-20" d="M712,494.77c-3.12,3.3-8.24,7.23-17.5,5-12.05-3-12.78-11.4-11.52-29.59s-2.41-35-20.26-35.12c0,0,7.6-5.87,19.23,0s6.45,30.05,6.22,37.19.68,18,6.9,19.81c7.72,2.18,16,.87,20-3.8C715.08,488.21,713.77,492.86,712,494.77Z" transform="translate(-5.72 -28.22)"/><path class="cls-20" d="M656.78,436.55s-7.52,2.3-10.29,12.43a51.19,51.19,0,0,0-1.69,20.11c.31,3.84,6.15,32.75-13.51,32.55-4.26,0-15.5-2.92-15-20.88,0,0,4.45,12.74,14.74,10.59s8.75-13.05,8.13-20.11S634.52,435.93,656.78,436.55Z" transform="translate(-5.72 -28.22)"/><path class="cls-20" d="M612.6,449.86s-7.94-3.68-11.74,1.73-4.38,10.82-6.22,14.62-2.65,8.06-8.29,7.6-12.09-5.87-13.82-10.59-2.07-13.47-3.22-17.27-5.07-7.49-7.83-7.95a10,10,0,0,1,10,4.95c3.57,6.11,2.42,17.39,5.52,19.81a8,8,0,0,0,12.09-3C596.44,445.39,604.77,438.23,612.6,449.86Z" transform="translate(-5.72 -28.22)"/><path class="cls-20" d="M557.3,436.93a20.34,20.34,0,0,0-9.45,1c-4.6,1.77-12,4.36-15.12,3.9s-4.34-2.19-5.91-4.28c-2.23-3-6-10.05-9-11.59,0,0,6.14,2.08,8.44,6.07s3.79,5.8,6.71,4.8S550.92,430.25,557.3,436.93Z" transform="translate(-5.72 -28.22)"/><path class="cls-20" d="M510.24,423.61c-.32.49-9.09-.57-13.36,8.29s-6.1,18.77-11.05,27.06-13.93,12.78-22.22,10.36a56.9,56.9,0,0,1-18-8.86s9.55,3.91,18.3,2.41,17.07-8.25,19.81-17.15c4.14-13.47,6.43-16.22,11.28-20.61C500.65,420,513,419.35,510.24,423.61Z" transform="translate(-5.72 -28.22)"/><path class="cls-20" d="M430.68,452.05a15.84,15.84,0,0,0-10.94,2c-5.71,3.39-6.68,6.79-7.94,10.25S407.22,479,398,480.38s-13.7-2.08-17.5-6.68c0,0,7.48,5.29,13.7,1.73s9.56-11.35,11.4-16.35C408.8,450.27,423.19,443.42,430.68,452.05Z" transform="translate(-5.72 -28.22)"/><path class="cls-20" d="M371.07,466.64a10.74,10.74,0,0,0-7.06,4.29c-3.07,4-5.83,7.68-6.29,14.13s-.16,24.41-4.15,31.78c0,0-25.61,9.64-31.32,14,0,0-5.22-5.22,2.77-20.11,0,0,2.76,7.06,12.59-.46s12.12-17.81,12.74-25.8S363.7,462,371.07,466.64Z" transform="translate(-5.72 -28.22)"/><path class="cls-19" d="M329.81,496.76s-.66,6.18-2.4,9.41,2.06,6,7.59,1.84,8.76-8.06,10.83-16.58,2.75-15,6.21-20.15a18,18,0,0,0-8.29,12.21c-1.5,8.52-5.53,16.92-9.1,16.81S329.35,500.94,329.81,496.76Z" transform="translate(-5.72 -28.22)"/><path class="cls-19" d="M369.88,463.22s6.68.69,10.6,5.18,5.29,6.33,9.67,5.87,9.21-5.75,11.17-13.81,7.94-12.78,11.51-13.47c0,0-7.25-1.85-13,7.71s-8.06,13.93-13.36,11.86S376.71,459.28,369.88,463.22Z" transform="translate(-5.72 -28.22)"/><path class="cls-19" d="M365.39,464.38a14.05,14.05,0,0,0-5.64,2.87S360.67,463.24,365.39,464.38Z" transform="translate(-5.72 -28.22)"/><path class="cls-19" d="M441.08,455s10.49,8.46,23.18,4.91,15.66-10.44,18.27-20.88,8.14-16.89,14-19.65c0,0-12.59,1.38-17.65,11.52s-9.37,19-17.66,18.26S438.8,448.43,441.08,455Z" transform="translate(-5.72 -28.22)"/><path class="cls-19" d="M572.49,439.92s3.84,6.6,3.84,11.36,1.69,10,4.76,10,6.6-2.76,7.83-6.75,6.91-11.61,11.67-12.64c0,0-10.44,3.43-14.89,7.26S577.25,441.92,572.49,439.92Z" transform="translate(-5.72 -28.22)"/><path class="cls-19" d="M617.63,452.67a24.65,24.65,0,0,1,2.15,10.59c-.16,6-2.77,12-2.15,15s1.38,8.45,8.9,8.45,10-6.14,8.6-13.67-2-24.41,3.53-32.24c0,0-6.6.62-10.56,11.83C626.37,457.57,619.32,455.74,617.63,452.67Z" transform="translate(-5.72 -28.22)"/><path class="cls-19" d="M692.55,449.59s-.46,12.44-1.08,18.27-1,15.88,1.85,18.89c5,5.29,11.82,3.38,16.27,1.53s3.22-7.83-1.07-6.91-11.06.93-11.83-5.37,2-32-5.67-36.08C691,439.92,692.91,441.64,692.55,449.59Z" transform="translate(-5.72 -28.22)"/><path class="cls-19" d="M752.73,465.06a43.06,43.06,0,0,1,2.61,18.46c-.92,10,.46,21.19,4.15,24s10,4.61,14.89,5.22,12.43,5.68,12.12,12.13-2,11-1.84,15,5.37,3.22,5.68-2,1.38-8.9.92-14.89-1.07-12.28-9.21-15.05-17.81-2.15-20.42-9.52S762.86,470.7,752.73,465.06Z" transform="translate(-5.72 -28.22)"/><path class="cls-19" d="M442.05,448.46s-4.33,1.39-3.67,4.81a50.3,50.3,0,0,0-5.39-1c-2.31-.24-4.24-6.77-9.95-6.44a9.22,9.22,0,0,1,8.07.32C435.28,448.46,441.4,448.7,442.05,448.46Z" transform="translate(-5.72 -28.22)"/><path class="cls-19" d="M712,478.71s2.65.2,2.72,3.48a36.31,36.31,0,0,0,4.94-8c1.74-4.18,4.88-8.71,6.89-10.31,0,0-5,1.88-7.27,6.06S713.65,478.36,712,478.71Z" transform="translate(-5.72 -28.22)"/><path class="cls-19" d="M445.65,407.34s-71,18.77-102.27,41.83c-25.54,18.86-4.05,9.54,3.71,4.1S401.93,421.81,445.65,407.34Z" transform="translate(-5.72 -28.22)"/><path class="cls-19" d="M814.91,466.4s-23.53-86.27-223.38-82C591.53,384.35,770.54,388.84,814.91,466.4Z" transform="translate(-5.72 -28.22)"/><path class="cls-20" d="M744.9,368.84s4.76,12.74-4.61,17.35-17-5.53-18.27-13.05,1.08-20.88,1.08-20.88a27.26,27.26,0,0,0,3.53-11.67c.31-6.44-1.38-18.57-1.38-18.57s3.68,12.13,3.84,19.65-1.39,17.65-1.39,25.18,3.23,14.27,7.22,14.73S744.56,380.48,744.9,368.84Z" transform="translate(-5.72 -28.22)"/><path class="cls-20" d="M722.33,341.21s0,9.21-8.59,11.67-16.43-2.61-18-11.67,2.31-17.95,2.31-24.1c0-7.91-3.07-16.59-9.22-18.43,0,0,6.35,6.34,6.3,15.36-.08,12.81-3.07,18.88-3.38,24.71s1.84,18.12,13.05,19.81S723.41,349.19,722.33,341.21Z" transform="translate(-5.72 -28.22)"/><path class="cls-18" d="M672.28,295.15s-11.2.15-18.42,13.51S649,332.3,649,332.3,640.2,297.76,672.28,295.15Z" transform="translate(-5.72 -28.22)"/><path class="cls-20" d="M620,336.56a10.31,10.31,0,0,0,19.11-6c-.57-6-4.6-20.5-3.45-29.83s2-10.59,2-10.59-3.57,5.3-4.61,16.7,1,17.73.92,20.72S634.82,341.05,620,336.56Z" transform="translate(-5.72 -28.22)"/><path class="cls-20" d="M633.9,342.67a12.37,12.37,0,0,1-7.25,0s-3.45,17.38,9.56,19.92C636.21,362.59,628.72,354.76,633.9,342.67Z" transform="translate(-5.72 -28.22)"/><path class="cls-20" d="M615.6,318.14s-2-5.5-11.4-6.56c-8.52-1-12.09,1.27-13.71,4.26s-5,17.69-13.58,21.3c-10.71,4.49-26-.92-25.91-18.19,0,0,2.53,12.78,15.78,11.86s15.88-7.6,16.52-12.21,5.93-10.94,12.38-12.09S613,306.17,615.6,318.14Z" transform="translate(-5.72 -28.22)"/><path class="cls-20" d="M533.35,277.5s-17.35-5.84-28.1,9.21-6.9,35.48-22.8,40.6c-16.54,5.34-27.4-10.2-23.72-21.1,0,0-.61,15,11.67,15.19s18.42-7.52,22.72-20.26S511.16,267.36,533.35,277.5Z" transform="translate(-5.72 -28.22)"/><path class="cls-20" d="M401.47,300.75s1.23,10.06,0,16.89c0,0,2.15-3.3,4.53-6.29s6.22-9.44,4.3-12.74S403.47,300.6,401.47,300.75Z" transform="translate(-5.72 -28.22)"/><path class="cls-20" d="M440.62,292.54s-9.37,5.37-15.35,20-9.06,41.3-10.9,47.13-2.47,10.88-11.21,11.44c-10.17.64-12.44-10.21-11.36-16.05,0,0,2.46,8.91,9.67,6.3s6.11-10.13,9.35-21.65,9.53-29,14.91-35.61S439.08,292.85,440.62,292.54Z" transform="translate(-5.72 -28.22)"/><path class="cls-19" d="M731.08,340.94s.92,7.83,0,13.24-1.49,17.62,1,22,12,3.8,11.74-8.4-3-19.12-3.11-23.72C740.75,344.05,735.34,359.13,731.08,340.94Z" transform="translate(-5.72 -28.22)"/><path class="cls-19" d="M721.67,331.38s-3.25,13.48-11.89,13.13-9.09-10.36-8.29-14.85,3.62-13.13-1.38-15.09a22.55,22.55,0,0,1-1.73,11.75c-2.69,6-3.39,21.41,7.27,25.21S724.22,344.16,721.67,331.38Z" transform="translate(-5.72 -28.22)"/><path class="cls-19" d="M695.22,299.36c-.17,0,4,5.66,4.19,9.52.18,3.28,2.34,3.81,2.83,3S702.24,301.32,695.22,299.36Z" transform="translate(-5.72 -28.22)"/><path class="cls-19" d="M634.44,353.8s2.38,7.67,5.91,8.29,13.13-3.69,9.67-25.64c0,0-1.35,9-2.65,11.68C643.88,355.34,639.58,354,634.44,353.8Z" transform="translate(-5.72 -28.22)"/><path class="cls-19" d="M632.18,304a70,70,0,0,0-1,15.2c.5,7.37,2.57,16-4.34,16.69s-9-4-8.41-9.32-.69-18.66-6.1-22.57c0,0,8.29,5.41,10.6,7.25S630.57,306.85,632.18,304Z" transform="translate(-5.72 -28.22)"/><path class="cls-19" d="M549.31,292.08s3.07,10.59,2.46,15.35.72,19.35,12.74,21c10.21,1.37,15.35-3.47,16.12-6.84s3.07-14,12.28-16.12c0,0-11.63-3.84-17.86,6.14s-10.47,9.36-14.42,3.53S556.07,295.77,549.31,292.08Z" transform="translate(-5.72 -28.22)"/><path class="cls-19" d="M503.56,280.11S495,290.39,491.28,299.3s-8.6,17.5-19.34,18.42-11.67-12.59-11.67-17,4.61-10.44,7.37-5.84,2.17,14,6.45,13.21C483.76,306.36,485.6,282.26,503.56,280.11Z" transform="translate(-5.72 -28.22)"/><path class="cls-19" d="M410.07,284.94s-5.07,6.14-6.68,8.06-3,5.61-1.15,5.3,7.83-4.76,7.83-4.76C410.76,292,414.14,284.71,410.07,284.94Z" transform="translate(-5.72 -28.22)"/><path class="cls-19" d="M394.52,343.59s-1.95,3.8-1.95,6.91,2.87,9.08,7.71,8.75,6.56-16,9.1-22.92,5.59-16.12,6.71-17.84c0,0-8.21,16.46-13.16,26.94S393.83,348.77,394.52,343.59Z" transform="translate(-5.72 -28.22)"/><path class="cls-19" d="M632.19,244.57S543.94,220.86,458,248.68c0,0-12,5.89-.05,6.45S515.87,233.39,632.19,244.57Z" transform="translate(-5.72 -28.22)"/><path class="cls-18" d="M566.17,231.26s9.89-2.54,10.57-9.44,0-55.51,0-55.51,0-11.27-6.4-13.26c0,0,15.72-5.27,17.42,12.52v66.82Z" transform="translate(-5.72 -28.22)"/><path class="cls-18" d="M574.89,154.37s3,1.84,3.28,8.6,0,61.41,0,61.41-2,4.68-6,5.83L584,231s-3.53-3.22-3.38-4.91.46-63.1.46-63.1S580.67,155.45,574.89,154.37Z" transform="translate(-5.72 -28.22)"/><rect class="cls-19" x="557.92" y="130.76" width="5.06" height="68.7" rx="0.69"/><path class="cls-18" d="M592.76,97.41s-8.6,3.54-8.75,6.15,1.84,9-1.23,10.13-8.44-11.21-12.9-4.45-.92,12.89-4.6,15.35-6.45,3.07-9.67-1.54c0,0,1.62,6.76,8,8.75s5.79,3.84,7,5.84,5,4.76,6.09,3.07,1-6.14,2-9.67,7.68-12.13,10.67-12.9,7.45-7.52,5.76-11.82A50.72,50.72,0,0,1,592.76,97.41Z" transform="translate(-5.72 -28.22)"/><path class="cls-19" d="M580.25,67.82s1,7.1,2.41,10.71c1.93,4.78,3.58-1.84,3.58-1.84s.3,7.48-4.86,9.79-8.16,0-11.27,1.38c0,0,7.08-2.81,9.1-7.83S580.25,67.82,580.25,67.82Z" transform="translate(-5.72 -28.22)"/><path class="cls-18" d="M564.28,36.24c-.12-.21.24,2.75,4.61,7.21a26.2,26.2,0,0,0,10.51,6.14s1.85-1.07.92-4.37.39-.23-2.91-1.46-2.88-2.69-5.8-3.92S566.58,40.3,564.28,36.24Z" transform="translate(-5.72 -28.22)"/><path class="cls-20" d="M315.27,614.22s-.84-16-7.25-15.53-15.43,23.52-11.65,42,4.79,44.82,1.37,59.66-14.16,34.5-45,31.3v18s44.77,3.46,52.54-31.16,1.37-59.07-1.15-69.58-4.56-33.58,1.38-37.69S315.2,612.4,315.27,614.22Z" transform="translate(-5.72 -28.22)"/><path class="cls-20" d="M339.51,698.17s20.13,1.94,28.59-12.67,9.59-34,9.59-36.56,1.51-27.74,1.51-27.74,4.38,8.79,16.17,2.16S409.9,604.61,409,598.68a97.82,97.82,0,0,1,.16-24.89c1.2-9.23,7.83-14.16,16.05-13.25,0,0-9.82,3-8.68,13.71s2.34,25.5,4.14,34.57-6.11,33.41-31.51,32.16c0,0,6.22,33.25-6.79,54.56C372.21,712.17,349.07,709.24,339.51,698.17Z" transform="translate(-5.72 -28.22)"/><path class="cls-20" d="M458.1,632.83s20.56,10.18,37-5.82,11.44-32.5,11.43-40.76,8.77-25,24.33-24.57,27.86,8.21,31.31,24.66c0,0-12.82-15.52-31.31-10.1s-14.05,22.45-12.23,36.84-6.85,35.41-32.89,41.8-39.76-16.67-42-33.58A35.6,35.6,0,0,0,458.1,632.83Z" transform="translate(-5.72 -28.22)"/><path class="cls-20" d="M575.29,696.57s6.68,4.46,17.3-1,10.79-19.53,8.74-28.61-5.31-17.5-7.54-20.21-.51-5.7,1.2-8.51,6.34-8.11,7.36-10.34c0,0,0,7.33-2.22,10.43s-3.94,6.7,0,13.56a62.21,62.21,0,0,1,8.56,34.26C608,701.88,589.16,709.25,575.29,696.57Z" transform="translate(-5.72 -28.22)"/><path class="cls-20" d="M593.1,595.75s4.13-15.47,19.46-15.68,20.16,26.77,20.65,29-.7,0-.7,0-7.54-15.27-20-18.36A20.67,20.67,0,0,0,593.1,595.75Z" transform="translate(-5.72 -28.22)"/><path class="cls-20" d="M649.64,639.35s9.25,8.22,24.56,1.94c0,0,5.59-2.28,9.88-11.53s5-17.48,15.76-17.48,19.7,6.52,21.93,23.39c0,0-11.31-16.42-20.73-11.77s-3.43,27.61-20.73,32.93S651.24,647.21,649.64,639.35Z" transform="translate(-5.72 -28.22)"/><path class="cls-20" d="M725,692.81s6,13.08,20.73,17.16,20.74-5,22.28-10.66a124.67,124.67,0,0,0,2.57-14.62s5.31,22.16-5.83,31.07-24.2,6.3-31.69-1.2C727.08,708.57,725.53,705.33,725,692.81Z" transform="translate(-5.72 -28.22)"/><path class="cls-20" d="M770.25,661.62s.06-18.35,12.37-18.85,15,30.33,14.53,35.3-1.71,23.13,2.74,28.95c0,0-10.28-10.8-10.1-26.3s-.52-28.86-6.86-29.55S770.25,661.62,770.25,661.62Z" transform="translate(-5.72 -28.22)"/><path class="cls-20" d="M808.8,717.47a19,19,0,0,0,18.85,6.23c12.16-2.63,10.28-14.64,10.11-17.61s-.35-14,2.48-17.06,8.58-3.43,11.57,6.51a35.72,35.72,0,0,1,0,19.19s-1.55-20.9-6.17-18.67-2.91,11.65-1.54,18.67-4.29,19.71-17,18.68S809,722.44,808.8,717.47Z" transform="translate(-5.72 -28.22)"/><path class="cls-20" d="M854,750.81s7.2,17.72,26.73,15.83v13.88S857,775.23,854,750.81Z" transform="translate(-5.72 -28.22)"/><path class="cls-20" d="M359.23,513.92s1.21-2.75,1.78-15.64-.45-16.21,2.86-20.89,6.76-8.87,10.39-6.85c0,0-6.62,5.14-7,12.45s3.42,24.1,3.08,27.64Z" transform="translate(-5.72 -28.22)"/><path class="cls-20" d="M387.06,481.16s4.68,4.68,16.21,0S414,470,414.81,466.88s6.49-12.9,15.87-12c0,0,5.11,1.14,10.15,6.85s9.73,7.9,10.76,8.23c0,0-11.87-.09-15.53-5.59s-11.65-3.41-13,0,.45,10.15-5.37,17.35S397.22,494.07,387.06,481.16Z" transform="translate(-5.72 -28.22)"/><path class="cls-20" d="M465.87,475.11s17.7,4.94,25.35-13.35,8.68-24.46,10.17-27.2,6.68-10.93,15.87-4.23c0,0-8.11,1.1-9.36,6.21s-4.34,20.29-8.11,32.4C496.13,480.69,480.14,489.27,465.87,475.11Z" transform="translate(-5.72 -28.22)"/><path class="cls-20" d="M527.77,443.58s2.29,3.66,8.68,2.4,15.42-6.4,18.16-6.06,11.19,1,11.54,12.46c0,0-2.86-7.9-8.34-6.24s-11,12.52-21.59,10.81-14.66-14-14.51-20.41C521.71,436.54,526.23,442.16,527.77,443.58Z" transform="translate(-5.72 -28.22)"/><path class="cls-20" d="M576.62,475.79s8.6,4.45,13.51,3.43,8.11-5.71,9-11.08S603,453.71,606,453.27s7.87-2.83,10.39,6.76c0,0-5.94-3.77-8-.23s-3.89,11.08-4,16.22S598.59,491.1,589,489.27C589,489.27,579.56,488.47,576.62,475.79Z" transform="translate(-5.72 -28.22)"/><path class="cls-20" d="M624.63,503.68s13.56,5.13,20.91-6.53,4.1-19.8,3.07-24.12-2.26-19.31,1.61-26.25,11.52-12.66,21-5.94c0,0-11.82-2.45-13,7.65s-2.25,16.26,1.1,25.36C665.07,489.49,656.67,522,624.63,503.68Z" transform="translate(-5.72 -28.22)"/><path class="cls-20" d="M688.88,501.81s15.76,9.22,25.18-4.32,5.82-19.39,15.08-24,11.37,1.22,12.88,7.9c0,0-5.1-9.92-10.71-2s-3.33,16-6.52,25.44S705.71,523.18,688.88,501.81Z" transform="translate(-5.72 -28.22)"/><path class="cls-20" d="M745.19,512.34S749,523.19,756,527.13s12.85,5.18,12.85,15.27a79.75,79.75,0,0,0,2.4,18.83l-8.39-4.63s-.52-10.07-2.24-14.2-8.38-5.33-12.84-11.33S745.19,512.34,745.19,512.34Z" transform="translate(-5.72 -28.22)"/><path class="cls-18" d="M409.61,373.8s6.69,1.76,9.94-14.54,5-28.25,7.54-39,13.69-26.09,20.9-26.84,9.08,5.14,8.05,7.2c0,0-2.4-5.85-7.71-2.32S434.25,315,433,322.57c-1.78,10.51-3.13,41.74-4.84,51.28s-9.43,17.93-20.22,16.74Z" transform="translate(-5.72 -28.22)"/><path class="cls-18" d="M460.27,326.17s7.08,7.88,20.79,6.34,18.33-15.42,18.5-17.56,4.74-20.87,9.22-24.79,15.87-14.72,31.25-3.57c0,0-19.25-2.92-23.79,10.28s.32,29.47-10.07,43S471.52,352.72,460.27,326.17Z" transform="translate(-5.72 -28.22)"/><path class="cls-18" d="M551,331.48s5.09,10.9,17.69,11.19,16.43-4.92,18.36-10.37,4-13.17,5.86-14.54,12.84-8.72,21.75,4.63c0,0-11.75-7-16.48,0s-4,12.9-9.7,25.16C584.88,355.29,556.7,369,551,331.48Z" transform="translate(-5.72 -28.22)"/><path class="cls-18" d="M635.42,365.06s9.61,5.64,15.34-2.92,3.68-18,3.51-22.61-3.26-10.7-.69-19.57,6.77-22,21.89-20.6c0,0-11.36,10.46-14.09,20.6-3.14,11.69,1.81,19.15,3,26.25C667.46,364.72,660.43,380.48,635.42,365.06Z" transform="translate(-5.72 -28.22)"/><path class="cls-18" d="M690.53,352.29s1,8.71,14.16,9.51,13.59-4.22,13.59-4.22-4.45,19.57,6.63,27.94V393l-9-2.39.34-6.39s-4.8-5.95-5.94-16.69C710.29,367.51,696.35,375.55,690.53,352.29Z" transform="translate(-5.72 -28.22)"/><path class="cls-10" d="M827.36,392.7s-11.46-28.23,4.43-43.1c12.83-12,45.1,5.26,34.39,17.44-11.26,12.81-31.44-15.26-11.85-28.9,18-12.57,31.87,2.66,46.4,1.5S914.5,320.3,914.5,320.3l19,13.18s-11.88,24.11-28.55,23-26.73-17.31-38.15-16.17-15.36,12.89-14.39,16.17c1.25,4.27,4.34,7.59,8.22,6.45s-2.51-10.06-6.17-11.2-11.88-.68-13.48,8.68,8.68,25.13,8.68,25.13Z" transform="translate(-5.72 -28.22)"/><path class="cls-21" d="M981,1024.94c-26.44-59.63-62.71-67.62-62.71-67.62l12.42-13.24s42.26,6.85,76.64,50.71Z" transform="translate(-5.72 -28.22)"/><path class="cls-21" d="M69.27,624.93c36.39,28,64.37,3.33,67.1-13.95s-14.86-23.25-23.75-10.51C100.37,618,116.6,638.68,139,630c21.58-8.34,36.56,5,36.56,5l14.73-18.29s-33.25-8.15-47.53-1.1-22.44,13.83-28.22,3.85,7.09-24.24,12.57-20.8,3.31,25.84-20.56,30.16-34.72-21.93-34.72-21.93Z" transform="translate(-5.72 -28.22)"/><path class="cls-22" d="M100.67,941.52a257.64,257.64,0,0,1,60.7-41.38l-4.72-7.07S121.39,907,88.58,930.2Z" transform="translate(-5.72 -28.22)"/><path class="cls-22" d="M149.21,888.43l-3.83-9.7s-43.21,6.19-58.14,13.46l6.67,18.61s19.4-9.33,26.19-12.08C127.14,895.87,149.21,888.43,149.21,888.43Z" transform="translate(-5.72 -28.22)"/><path class="cls-22" d="M170.76,915,165,908.25s-30,18.08-44.7,34.72L133,950.5Z" transform="translate(-5.72 -28.22)"/><path class="cls-22" d="M252,352.06c6.3,15.71,36.3,15.56,41.31,3.05s-10.2-22.3-16.58-4.34c-7.95,22.41,24,30.05,24,30.05l10.34-13.36s-17.84,4.3-24.73-1.34-6.72-15.15-3.58-18.57,8.65-1.85,6.82,4.44-23.67,8.69-30.84-8.5Z" transform="translate(-5.72 -28.22)"/><path class="cls-22" d="M936.28,735.92s17.89-.59,33.45,10.12c21.3,14.66,47.1,14,50.39-5.55,2.83-16.84-18-19.88-21.24-12.72l-6.48-20.34s21.48-12.57,38.84,3.19S1037,749,1029,756.19s-24.68,12.68-37.47,7.43-21.24-11.88-30.84-16.45-26.5-1.83-26.5-1.83Z" transform="translate(-5.72 -28.22)"/><path class="cls-22" d="M987.86,787.61H962.25s15.7-17.45-3.43-30.16l6.12-2.76s21.58,8.44,22.92,32" transform="translate(-5.72 -28.22)"/><polygon class="cls-12" points="904.14 483.56 888.77 580.86 964.74 509.31 863.16 520.4 966.02 576.38 904.14 483.56"/><polygon class="cls-12" points="156.03 700.01 87.95 788.22 186.12 746.51 103.39 716.28 149.51 812.82 156.03 700.01"/><polygon class="cls-12" points="1047.19 799.97 968.75 852.37 1068.56 838.38 999.86 797.26 1024.5 890.28 1047.19 799.97"/><polygon class="cls-12" points="288.02 170.95 273.13 253.2 327.8 185.65 256.61 199.31 327.43 242.78 288.02 170.95"/><polygon class="cls-12" points="189.79 511.21 187.45 560.98 210.69 519.83 175.04 529.16 219.28 552.52 189.79 511.21"/><path class="cls-8" d="M1066.75,643.39a11.5,11.5,0,1,1-11.5-11.5A11.5,11.5,0,0,1,1066.75,643.39Z" transform="translate(-5.72 -28.22)"/><path class="cls-23" d="M849.8,919a8.26,8.26,0,1,1-8.25-8.26A8.25,8.25,0,0,1,849.8,919Z" transform="translate(-5.72 -28.22)"/><path class="cls-10" d="M34.67,792.69a14.48,14.48,0,1,1-14.48-14.48A14.48,14.48,0,0,1,34.67,792.69Z" transform="translate(-5.72 -28.22)"/><path class="cls-10" d="M896.66,1043.66a8.12,8.12,0,1,1-8.12-8.12A8.11,8.11,0,0,1,896.66,1043.66Z" transform="translate(-5.72 -28.22)"/><path class="cls-23" d="M263.47,951.62a9.65,9.65,0,1,1-9.65-9.65A9.65,9.65,0,0,1,263.47,951.62Z" transform="translate(-5.72 -28.22)"/><path class="cls-10" d="M190.28,672a5.31,5.31,0,1,1-5.31-5.31A5.31,5.31,0,0,1,190.28,672Z" transform="translate(-5.72 -28.22)"/><path class="cls-24" d="M157.63,532.8a7.44,7.44,0,1,1-7.44-7.44A7.44,7.44,0,0,1,157.63,532.8Z" transform="translate(-5.72 -28.22)"/><path class="cls-10" d="M253.82,520.35a3.37,3.37,0,1,1-3.37-3.37A3.37,3.37,0,0,1,253.82,520.35Z" transform="translate(-5.72 -28.22)"/><path class="cls-10" d="M90.36,704.56a5.72,5.72,0,1,1-5.71-5.72A5.71,5.71,0,0,1,90.36,704.56Z" transform="translate(-5.72 -28.22)"/><path class="cls-10" d="M866.92,496.76a7.52,7.52,0,1,1-7.52-7.52A7.52,7.52,0,0,1,866.92,496.76Z" transform="translate(-5.72 -28.22)"/><path class="cls-10" d="M297.75,465.75A2.76,2.76,0,1,1,295,463,2.75,2.75,0,0,1,297.75,465.75Z" transform="translate(-5.72 -28.22)"/><path class="cls-10" d="M160.92,419.35a2.8,2.8,0,1,1-2.8-2.8A2.8,2.8,0,0,1,160.92,419.35Z" transform="translate(-5.72 -28.22)"/><polygon class="cls-18" points="153.36 710.5 151.99 736.56 179.25 746 149.71 760.3 148.34 801.19 129.83 766.69 95.8 782 132.34 760.07 142.85 781.08 144.22 754.59 173.01 746 142.17 735.4 153.36 710.5"/><g class="cls-25"><polygon points="276.55 245.04 296.43 222.26 322.47 238.19 306.71 208.21 324.52 187.65 298.48 193.13 289.75 177.03 297.28 194.84 318.7 190.39 301.74 205.47 317.67 231.68 295.57 215.4 276.55 245.04"/><polygon points="260.28 199.99 282.38 208.55 281.35 213.35 260.28 199.99"/></g><polygon class="cls-18" points="1065.5 837.74 1032.15 837.39 1026.09 877.14 1017.41 838.99 973.32 850.87 1014.21 845.05 1024.61 886.73 1035.57 842.08 1065.5 837.74"/><polygon class="cls-18" points="1001.65 800.04 1012.03 823.45 1008.51 825.8 1001.65 800.04"/><polygon class="cls-18" points="958.99 512.96 935.86 534.55 961.22 571.55 919.24 549.62 890.63 577.55 891.49 570.7 917.02 540.88 954.37 564.22 929.01 529.06 958.99 512.96"/><polygon class="cls-18" points="867.67 520.84 897.23 527.34 895.66 537.3 867.67 520.84"/><path class="cls-18" d="M965.45,991.37s12.11,17.36,15.53,28.78l22.62-25.58S990.35,979.26,983.5,974C983.5,974,985.32,988.17,965.45,991.37Z" transform="translate(-5.72 -28.22)"/><path class="cls-18" d="M105.28,887.54s-14.21,3.2-16.7,5l5.74,16.33s12.79-6,15.08-6.74A24.28,24.28,0,0,1,105.28,887.54Z" transform="translate(-5.72 -28.22)"/><path class="cls-18" d="M108.82,918.84S93.63,928.32,91,930.26l9.59,9.25s13.48-10.85,16.1-13.25C116.7,926.26,111.56,926.38,108.82,918.84Z" transform="translate(-5.72 -28.22)"/><path class="cls-18" d="M135.66,931.29s-8.56,5.48-13.24,11.54l10.39,6.28s10.27-9.48,12.73-11.88C145.54,937.23,139.09,938.14,135.66,931.29Z" transform="translate(-5.72 -28.22)"/><path class="cls-20" d="M969.42,771.15s0,10.23-5.31,15.37h22.27s-.34-11.22-5.57-17.31C980.81,769.21,976.1,775.05,969.42,771.15Z" transform="translate(-5.72 -28.22)"/><path class="cls-20" d="M999.15,725.59l-3-10.63s13.48-5.14,25.13,2.86,4.41,21.17-1,27.07c0,0,5.26-14.51-4.79-19.74C1004.68,719.52,999.15,725.59,999.15,725.59Z" transform="translate(-5.72 -28.22)"/><path class="cls-20" d="M823.94,373s.68,11.53,3.65,18.16l20.22-5.94s-6.51-10.85-7-15.54A13.48,13.48,0,0,1,823.94,373Z" transform="translate(-5.72 -28.22)"/><path class="cls-20" d="M923.53,329.14s-4.68,20.79-25.58,23.3c0,0,17.7,10.39,33.24-18.16Z" transform="translate(-5.72 -28.22)"/><path class="cls-18" d="M133.44,621.79s-5.91,7-8.83,8.82c0,0,3,2.23,9.34,0s13.45-5.74,23-4.62,18.16,7.28,18.16,7.28l13.62-16s-9.17-2-12.85-2.14c0,0,3.08,3.17-1.28,7.71s-14.4-1.72-24.76-.17-15.51,5.05-17.73,5.48l7.36-9.77Z" transform="translate(-5.72 -28.22)"/><path class="cls-18" d="M283.4,363.69a32.75,32.75,0,0,1-5.36,1s4,9.08,22.44,15.41l3.25-4.53s-14.12,1.36-22.18-9.08l3-1Z" transform="translate(-5.72 -28.22)"/></g></g></svg>